<svg xmlns="http://www.w3.org/2000/svg" viewBox="0 0 96 96" width="96" height="96" role="img" aria-label="clients">
<defs>
<clipPath id="op-clients-c">
<rect width="96" height="96" rx="24"/>
</clipPath>
</defs>
<g clip-path="url(#op-clients-c)">
<rect width="96" height="96" fill="#E2551B"/>
<rect x="22" y="16" width="58" height="40" rx="7" fill="#FFFFFF" fill-opacity="0.55"/>
<rect x="16" y="30" width="64" height="48" rx="8" fill="#FFFFFF"/>
<ellipse cx="32" cy="47" rx="7" ry="7" fill="#E2551B"/>
<path d="M32 56H32A10 10 0 0 1 42 66V66A2 2 0 0 1 40 68H24A2 2 0 0 1 22 66V66A10 10 0 0 1 32 56Z" fill="#E2551B"/>
<rect x="48" y="44" width="24" height="5" rx="2.5" fill="#E2551B"/>
<rect x="48" y="56" width="18" height="5" rx="2.5" fill="#E2551B"/>
</g>
</svg>
